<svg width="18" height="26" viewBox="0 0 18 26" fill="none" xmlns="http://www.w3.org/2000/svg">
<path fill-rule="evenodd" clip-rule="evenodd" d="M0 8.96552C0 3.99373 4.00909 0 9 0C13.9909 0 18 3.99373 18 8.96552C18 14.0188 11.7818 21.4357 9 26C6.21818 21.3542 0 14.0188 0 8.96552ZM9 23.6364C11.2091 20.0502 16.8545 13.5298 16.8545 8.96552C16.8545 4.64577 13.3364 1.22257 9 1.22257C4.66364 1.22257 1.22727 4.64577 1.22727 8.96552C1.22727 13.5298 6.79091 20.0502 9 23.6364Z" fill="#7CCBCE"/>
<path d="M9.00256 12.2257C10.9456 12.2257 12.5207 10.6566 12.5207 8.72101C12.5207 6.78541 10.9456 5.2163 9.00256 5.2163C7.05952 5.2163 5.48438 6.78541 5.48438 8.72101C5.48438 10.6566 7.05952 12.2257 9.00256 12.2257Z" fill="#7CCBCE"/>
</svg>
